<?xml version="1.0" encoding="UTF-8"?>
<svg xmlns="http://www.w3.org/2000/svg" version="1.1" baseProfile="basic" width="400" height="400" viewBox="0 0 400 400">
<rect x="0" y="0" width="400" height="400" fill="#3346C2"/>
<path fill="#FFFFFF" fill-rule="evenodd" d="M98.34 288.71H294.31A52.49 52.49 0 0 0 303.06 185.13A73.49 73.49 0 0 0 166.58 146.98A48.99 48.99 0 0 0 100.09 191.43A48.99 48.99 0 0 0 98.34 288.71ZM192.83 169.73H210.32C217.32 187.23 243.57 190.73 240.07 222.22C233.07 206.47 222.57 202.97 210.32 202.97V253.72A22.75 22.75 0 1 1 192.83 231.32Z"/>
</svg>
